<?xml version="1.0"?>
<mxfile host="www.draw.io" modified="2020-07-24T11:26:03.176Z" agent="5.0 (X11; Linux x86_64) AppleWebKit/537.36 (KHTML, like Gecko) Chrome/84.0.4147.89 Safari/537.36" etag="SOhUuvMCLRJLDeu5lSW0" version="13.5.1" pages="6">
  <diagram name="Different" id="A6PzAOiaJo6HvrOZqPlj">
    <mxGraphModel dx="2" dy="1" grid="1" gridSize="10" guides="1" tooltips="1" connect="1" arrows="1" fold="1" page="1" pageScale="1" pageWidth="850" pageHeight="1100" math="1" shadow="0">
      <root>
        <mxCell id="BM1TCYL0ZDAD7-d_OZ7i-0"/>
        <mxCell id="BM1TCYL0ZDAD7-d_OZ7i-1" parent="BM1TCYL0ZDAD7-d_OZ7i-0"/>
        <mxCell id="BM1TCYL0ZDAD7-d_OZ7i-2" value="" style="endArrow=none;html=1;strokeWidth=12;fillColor=#e1d5e7;strokeColor=#9673a6;" parent="BM1TCYL0ZDAD7-d_OZ7i-1" source="BM1TCYL0ZDAD7-d_OZ7i-36" target="BM1TCYL0ZDAD7-d_OZ7i-35" edge="1">
          <mxGeometry width="50" height="50" relative="1" as="geometry">
            <mxPoint x="744.5777507675033" y="462.1629751806972" as="sourcePoint"/>
            <mxPoint x="872.2841428235437" y="298.35850046381364" as="targetPoint"/>
          </mxGeometry>
        </mxCell>
        <mxCell id="BM1TCYL0ZDAD7-d_OZ7i-4" value="" style="endArrow=none;html=1;strokeWidth=12;fillColor=#e1d5e7;strokeColor=#9673a6;" parent="BM1TCYL0ZDAD7-d_OZ7i-1" source="BM1TCYL0ZDAD7-d_OZ7i-35" target="BM1TCYL0ZDAD7-d_OZ7i-24" edge="1">
          <mxGeometry width="50" height="50" relative="1" as="geometry">
            <mxPoint x="886.8540830619048" y="295.8583972168322" as="sourcePoint"/>
            <mxPoint x="1010.0000032825554" y="374.6708592374402" as="targetPoint"/>
          </mxGeometry>
        </mxCell>
        <mxCell id="YiaSM9y-Fc_Tpj-L1ZVr-8" value="" style="endArrow=none;html=1;strokeWidth=8;fillColor=#ffe6cc;strokeColor=#d79b00;" parent="BM1TCYL0ZDAD7-d_OZ7i-1" source="BM1TCYL0ZDAD7-d_OZ7i-35" target="BM1TCYL0ZDAD7-d_OZ7i-24" edge="1">
          <mxGeometry width="50" height="50" relative="1" as="geometry">
            <mxPoint x="908.4240830619049" y="315.8083972168322" as="sourcePoint"/>
            <mxPoint x="1031.5700032825555" y="394.6208592374402" as="targetPoint"/>
          </mxGeometry>
        </mxCell>
        <mxCell id="YiaSM9y-Fc_Tpj-L1ZVr-9" value="" style="endArrow=none;html=1;strokeWidth=8;fillColor=#ffe6cc;strokeColor=#d79b00;" parent="BM1TCYL0ZDAD7-d_OZ7i-1" source="BM1TCYL0ZDAD7-d_OZ7i-34" target="BM1TCYL0ZDAD7-d_OZ7i-35" edge="1">
          <mxGeometry width="50" height="50" relative="1" as="geometry">
            <mxPoint x="639.3824316459368" y="406.54023463085707" as="sourcePoint"/>
            <mxPoint x="890.6185517575591" y="313.8824310641518" as="targetPoint"/>
          </mxGeometry>
        </mxCell>
        <mxCell id="YiaSM9y-Fc_Tpj-L1ZVr-10" value="" style="endArrow=none;html=1;strokeWidth=8;fillColor=#ffe6cc;strokeColor=#d79b00;" parent="BM1TCYL0ZDAD7-d_OZ7i-1" source="BM1TCYL0ZDAD7-d_OZ7i-34" target="BM1TCYL0ZDAD7-d_OZ7i-32" edge="1">
          <mxGeometry width="50" height="50" relative="1" as="geometry">
            <mxPoint x="637.4220086687656" y="403.2982250618892" as="sourcePoint"/>
            <mxPoint x="832.5748533671429" y="227.11829810326572" as="targetPoint"/>
          </mxGeometry>
        </mxCell>
        <mxCell id="YiaSM9y-Fc_Tpj-L1ZVr-11" value="" style="endArrow=none;html=1;strokeWidth=8;fillColor=#ffe6cc;strokeColor=#d79b00;" parent="BM1TCYL0ZDAD7-d_OZ7i-1" source="BM1TCYL0ZDAD7-d_OZ7i-32" target="BM1TCYL0ZDAD7-d_OZ7i-31" edge="1">
          <mxGeometry width="50" height="50" relative="1" as="geometry">
            <mxPoint x="830.0681561551687" y="221.58553757640163" as="sourcePoint"/>
            <mxPoint x="509.93184612369816" y="259.25448184267054" as="targetPoint"/>
          </mxGeometry>
        </mxCell>
        <mxCell id="YiaSM9y-Fc_Tpj-L1ZVr-12" value="" style="endArrow=none;html=1;strokeWidth=8;fillColor=#ffe6cc;strokeColor=#d79b00;" parent="BM1TCYL0ZDAD7-d_OZ7i-1" source="BM1TCYL0ZDAD7-d_OZ7i-31" target="BM1TCYL0ZDAD7-d_OZ7i-30" edge="1">
          <mxGeometry width="50" height="50" relative="1" as="geometry">
            <mxPoint x="490.2999756267726" y="257.9890480961245" as="sourcePoint"/>
            <mxPoint x="430.17615818467914" y="242.8263443838906" as="targetPoint"/>
          </mxGeometry>
        </mxCell>
        <mxCell id="BM1TCYL0ZDAD7-d_OZ7i-3" value="" style="endArrow=none;html=1;strokeWidth=12;fillColor=#e1d5e7;strokeColor=#9673a6;" parent="BM1TCYL0ZDAD7-d_OZ7i-1" source="BM1TCYL0ZDAD7-d_OZ7i-36" target="BM1TCYL0ZDAD7-d_OZ7i-33" edge="1">
          <mxGeometry width="50" height="50" relative="1" as="geometry">
            <mxPoint x="728.7470992048574" y="472.5482858506511" as="sourcePoint"/>
            <mxPoint x="438.1126489266032" y="547.550738156095" as="targetPoint"/>
          </mxGeometry>
        </mxCell>
        <mxCell id="BM1TCYL0ZDAD7-d_OZ7i-5" value="" style="endArrow=none;html=1;strokeWidth=12;fillColor=#e1d5e7;strokeColor=#9673a6;" parent="BM1TCYL0ZDAD7-d_OZ7i-1" source="BM1TCYL0ZDAD7-d_OZ7i-33" target="BM1TCYL0ZDAD7-d_OZ7i-22" edge="1">
          <mxGeometry width="50" height="50" relative="1" as="geometry">
            <mxPoint x="427.3981156229108" y="540.1033817490659" as="sourcePoint"/>
            <mxPoint x="400.1660432131036" y="280.4152386838991" as="targetPoint"/>
          </mxGeometry>
        </mxCell>
        <mxCell id="BM1TCYL0ZDAD7-d_OZ7i-10" value="" style="endArrow=none;html=1;strokeWidth=7;fillColor=#ffe6cc;strokeColor=#d79b00;" parent="BM1TCYL0ZDAD7-d_OZ7i-1" edge="1">
          <mxGeometry width="50" height="50" relative="1" as="geometry">
            <mxPoint x="391.06989683780427" y="218.31962417616924" as="sourcePoint"/>
            <mxPoint x="330.4203460919719" y="202.99544530279243" as="targetPoint"/>
          </mxGeometry>
        </mxCell>
        <mxCell id="BM1TCYL0ZDAD7-d_OZ7i-12" value="A&lt;br&gt;&lt;div&gt;&lt;br&gt;&lt;/div&gt;&lt;div&gt;&lt;br&gt;&lt;/div&gt;" style="whiteSpace=wrap;html=1;rounded=0;shadow=0;strokeWidth=1;fillColor=#6d8764;fontSize=24;align=right;strokeColor=#3A5431;" parent="BM1TCYL0ZDAD7-d_OZ7i-1" vertex="1">
          <mxGeometry x="280" y="270" width="20" height="20" as="geometry"/>
        </mxCell>
        <mxCell id="BM1TCYL0ZDAD7-d_OZ7i-13" value="B&lt;br&gt;&lt;br&gt;&lt;div&gt;&lt;br&gt;&lt;/div&gt;" style="whiteSpace=wrap;html=1;rounded=0;shadow=0;strokeWidth=1;fillColor=#e51400;fontSize=24;align=right;strokeColor=#B20000;" parent="BM1TCYL0ZDAD7-d_OZ7i-1" vertex="1">
          <mxGeometry x="970" y="420" width="20" height="20" as="geometry"/>
        </mxCell>
        <mxCell id="BM1TCYL0ZDAD7-d_OZ7i-14" value="" style="endArrow=none;html=1;strokeWidth=3;fillColor=#76608a;strokeColor=#B3B3B3;" parent="BM1TCYL0ZDAD7-d_OZ7i-1" source="BM1TCYL0ZDAD7-d_OZ7i-36" target="BM1TCYL0ZDAD7-d_OZ7i-35" edge="1">
          <mxGeometry width="50" height="50" relative="1" as="geometry">
            <mxPoint x="740" y="470" as="sourcePoint"/>
            <mxPoint x="880" y="320" as="targetPoint"/>
          </mxGeometry>
        </mxCell>
        <mxCell id="BM1TCYL0ZDAD7-d_OZ7i-15" value="" style="endArrow=none;html=1;strokeWidth=3;fillColor=#76608a;strokeColor=#B3B3B3;" parent="BM1TCYL0ZDAD7-d_OZ7i-1" source="BM1TCYL0ZDAD7-d_OZ7i-36" target="BM1TCYL0ZDAD7-d_OZ7i-33" edge="1">
          <mxGeometry width="50" height="50" relative="1" as="geometry">
            <mxPoint x="720" y="500" as="sourcePoint"/>
            <mxPoint x="470" y="570" as="targetPoint"/>
          </mxGeometry>
        </mxCell>
        <mxCell id="BM1TCYL0ZDAD7-d_OZ7i-16" value="" style="endArrow=none;html=1;strokeWidth=3;fillColor=#76608a;strokeColor=#B3B3B3;" parent="BM1TCYL0ZDAD7-d_OZ7i-1" source="BM1TCYL0ZDAD7-d_OZ7i-35" target="BM1TCYL0ZDAD7-d_OZ7i-24" edge="1">
          <mxGeometry width="50" height="50" relative="1" as="geometry">
            <mxPoint x="880" y="290" as="sourcePoint"/>
            <mxPoint x="940" y="370" as="targetPoint"/>
          </mxGeometry>
        </mxCell>
        <mxCell id="BM1TCYL0ZDAD7-d_OZ7i-17" value="" style="endArrow=none;html=1;strokeWidth=3;fillColor=#76608a;strokeColor=#B3B3B3;" parent="BM1TCYL0ZDAD7-d_OZ7i-1" source="BM1TCYL0ZDAD7-d_OZ7i-34" target="BM1TCYL0ZDAD7-d_OZ7i-35" edge="1">
          <mxGeometry width="50" height="50" relative="1" as="geometry">
            <mxPoint x="660" y="380" as="sourcePoint"/>
            <mxPoint x="880" y="270" as="targetPoint"/>
          </mxGeometry>
        </mxCell>
        <mxCell id="BM1TCYL0ZDAD7-d_OZ7i-18" value="" style="endArrow=none;html=1;strokeWidth=3;fillColor=#76608a;strokeColor=#B3B3B3;" parent="BM1TCYL0ZDAD7-d_OZ7i-1" source="BM1TCYL0ZDAD7-d_OZ7i-34" target="BM1TCYL0ZDAD7-d_OZ7i-32" edge="1">
          <mxGeometry width="50" height="50" relative="1" as="geometry">
            <mxPoint x="430" y="550" as="sourcePoint"/>
            <mxPoint x="820" y="200" as="targetPoint"/>
          </mxGeometry>
        </mxCell>
        <mxCell id="BM1TCYL0ZDAD7-d_OZ7i-20" value="" style="endArrow=none;html=1;strokeWidth=3;fillColor=#76608a;strokeColor=#B3B3B3;" parent="BM1TCYL0ZDAD7-d_OZ7i-1" source="BM1TCYL0ZDAD7-d_OZ7i-32" target="BM1TCYL0ZDAD7-d_OZ7i-31" edge="1">
          <mxGeometry width="50" height="50" relative="1" as="geometry">
            <mxPoint x="820" y="200" as="sourcePoint"/>
            <mxPoint x="480" y="240" as="targetPoint"/>
          </mxGeometry>
        </mxCell>
        <mxCell id="BM1TCYL0ZDAD7-d_OZ7i-21" value="" style="endArrow=none;html=1;strokeWidth=3;fillColor=#76608a;strokeColor=#B3B3B3;exitX=0;exitY=0.5;exitDx=0;exitDy=0;" parent="BM1TCYL0ZDAD7-d_OZ7i-1" source="BM1TCYL0ZDAD7-d_OZ7i-23" edge="1">
          <mxGeometry width="50" height="50" relative="1" as="geometry">
            <mxPoint x="480" y="240" as="sourcePoint"/>
            <mxPoint x="160" y="160" as="targetPoint"/>
          </mxGeometry>
        </mxCell>
        <mxCell id="BM1TCYL0ZDAD7-d_OZ7i-23" value="" style="ellipse;whiteSpace=wrap;html=1;aspect=fixed;fillColor=#d5e8d4;strokeColor=#82b366;rotation=5;" parent="BM1TCYL0ZDAD7-d_OZ7i-1" vertex="1">
          <mxGeometry x="310" y="190" width="20.42" height="20.42" as="geometry"/>
        </mxCell>
        <mxCell id="BM1TCYL0ZDAD7-d_OZ7i-24" value="" style="ellipse;whiteSpace=wrap;html=1;aspect=fixed;fillColor=#f8cecc;strokeColor=#b85450;" parent="BM1TCYL0ZDAD7-d_OZ7i-1" vertex="1">
          <mxGeometry x="1010" y="370" width="20" height="20" as="geometry"/>
        </mxCell>
        <mxCell id="BM1TCYL0ZDAD7-d_OZ7i-25" value="&lt;font style=&quot;font-size: 22px&quot;&gt;M&lt;/font&gt;" style="text;html=1;strokeColor=none;fillColor=none;align=center;verticalAlign=middle;whiteSpace=wrap;rounded=0;" parent="BM1TCYL0ZDAD7-d_OZ7i-1" vertex="1">
          <mxGeometry x="790" y="160" width="40" height="20" as="geometry"/>
        </mxCell>
        <mxCell id="BM1TCYL0ZDAD7-d_OZ7i-26" value="&lt;font style=&quot;font-size: 16px&quot;&gt;`c_1^A`&lt;/font&gt;" style="text;html=1;strokeColor=none;fillColor=none;align=center;verticalAlign=middle;whiteSpace=wrap;rounded=0;fontColor=#000000;" parent="BM1TCYL0ZDAD7-d_OZ7i-1" vertex="1">
          <mxGeometry x="290.42" y="160" width="40" height="20" as="geometry"/>
        </mxCell>
        <mxCell id="BM1TCYL0ZDAD7-d_OZ7i-27" value="&lt;font style=&quot;font-size: 16px&quot;&gt;`c_2^A`&lt;/font&gt;" style="text;html=1;strokeColor=none;fillColor=none;align=center;verticalAlign=middle;whiteSpace=wrap;rounded=0;fontColor=#000000;" parent="BM1TCYL0ZDAD7-d_OZ7i-1" vertex="1">
          <mxGeometry x="200" y="319.99999999999994" width="40" height="20" as="geometry"/>
        </mxCell>
        <mxCell id="BM1TCYL0ZDAD7-d_OZ7i-28" style="edgeStyle=orthogonalEdgeStyle;rounded=0;orthogonalLoop=1;jettySize=auto;html=1;exitX=0.5;exitY=1;exitDx=0;exitDy=0;strokeColor=#B3B3B3;strokeWidth=3;fontColor=#000000;" parent="BM1TCYL0ZDAD7-d_OZ7i-1" source="BM1TCYL0ZDAD7-d_OZ7i-26" target="BM1TCYL0ZDAD7-d_OZ7i-26" edge="1">
          <mxGeometry relative="1" as="geometry"/>
        </mxCell>
        <mxCell id="BM1TCYL0ZDAD7-d_OZ7i-29" value="" style="ellipse;whiteSpace=wrap;html=1;aspect=fixed;fillColor=#f5f5f5;strokeColor=#666666;rotation=5;fontColor=#333333;" parent="BM1TCYL0ZDAD7-d_OZ7i-1" vertex="1">
          <mxGeometry x="1150" y="460" width="20" height="20" as="geometry"/>
        </mxCell>
        <mxCell id="BM1TCYL0ZDAD7-d_OZ7i-30" value="" style="ellipse;whiteSpace=wrap;html=1;aspect=fixed;fillColor=#1ba1e2;strokeColor=#006EAF;rotation=5;fontColor=#ffffff;" parent="BM1TCYL0ZDAD7-d_OZ7i-1" vertex="1">
          <mxGeometry x="390.47" y="210.42" width="20" height="20" as="geometry"/>
        </mxCell>
        <mxCell id="BM1TCYL0ZDAD7-d_OZ7i-31" value="" style="ellipse;whiteSpace=wrap;html=1;aspect=fixed;fillColor=#1ba1e2;strokeColor=#006EAF;rotation=5;fontColor=#ffffff;" parent="BM1TCYL0ZDAD7-d_OZ7i-1" vertex="1">
          <mxGeometry x="469.99999999999994" y="230.42" width="20" height="20" as="geometry"/>
        </mxCell>
        <mxCell id="BM1TCYL0ZDAD7-d_OZ7i-32" value="" style="ellipse;whiteSpace=wrap;html=1;aspect=fixed;fillColor=#1ba1e2;strokeColor=#006EAF;rotation=5;fontColor=#ffffff;" parent="BM1TCYL0ZDAD7-d_OZ7i-1" vertex="1">
          <mxGeometry x="810" y="190.42" width="20" height="20" as="geometry"/>
        </mxCell>
        <mxCell id="BM1TCYL0ZDAD7-d_OZ7i-33" value="" style="ellipse;whiteSpace=wrap;html=1;aspect=fixed;fillColor=#1ba1e2;strokeColor=#006EAF;rotation=5;fontColor=#ffffff;" parent="BM1TCYL0ZDAD7-d_OZ7i-1" vertex="1">
          <mxGeometry x="420" y="540" width="20" height="20" as="geometry"/>
        </mxCell>
        <mxCell id="BM1TCYL0ZDAD7-d_OZ7i-34" value="" style="ellipse;whiteSpace=wrap;html=1;aspect=fixed;fillColor=#1ba1e2;strokeColor=#006EAF;rotation=5;fontColor=#ffffff;" parent="BM1TCYL0ZDAD7-d_OZ7i-1" vertex="1">
          <mxGeometry x="600" y="380" width="20" height="20" as="geometry"/>
        </mxCell>
        <mxCell id="BM1TCYL0ZDAD7-d_OZ7i-35" value="" style="ellipse;whiteSpace=wrap;html=1;aspect=fixed;fillColor=#1ba1e2;strokeColor=#006EAF;rotation=5;fontColor=#ffffff;" parent="BM1TCYL0ZDAD7-d_OZ7i-1" vertex="1">
          <mxGeometry x="870" y="280.41999999999996" width="20" height="20" as="geometry"/>
        </mxCell>
        <mxCell id="BM1TCYL0ZDAD7-d_OZ7i-36" value="" style="ellipse;whiteSpace=wrap;html=1;aspect=fixed;fillColor=#1ba1e2;strokeColor=#006EAF;rotation=5;fontColor=#ffffff;" parent="BM1TCYL0ZDAD7-d_OZ7i-1" vertex="1">
          <mxGeometry x="730" y="460" width="20" height="20" as="geometry"/>
        </mxCell>
        <mxCell id="BM1TCYL0ZDAD7-d_OZ7i-37" value="" style="ellipse;whiteSpace=wrap;html=1;aspect=fixed;fillColor=#f5f5f5;strokeColor=#666666;rotation=5;fontColor=#333333;" parent="BM1TCYL0ZDAD7-d_OZ7i-1" vertex="1">
          <mxGeometry x="149.99999999999994" y="150" width="20" height="20" as="geometry"/>
        </mxCell>
        <mxCell id="BM1TCYL0ZDAD7-d_OZ7i-38" value="&lt;div&gt;&lt;font style=&quot;font-size: 16px&quot;&gt;`c_1^B`&lt;/font&gt;&lt;/div&gt;" style="text;html=1;strokeColor=none;fillColor=none;align=center;verticalAlign=middle;whiteSpace=wrap;rounded=0;fontColor=#000000;" parent="BM1TCYL0ZDAD7-d_OZ7i-1" vertex="1">
          <mxGeometry x="1010" y="339.99999999999994" width="40" height="20" as="geometry"/>
        </mxCell>
        <mxCell id="BM1TCYL0ZDAD7-d_OZ7i-39" value="" style="endArrow=none;html=1;strokeWidth=3;fillColor=#76608a;strokeColor=#B3B3B3;" parent="BM1TCYL0ZDAD7-d_OZ7i-1" source="BM1TCYL0ZDAD7-d_OZ7i-31" target="BM1TCYL0ZDAD7-d_OZ7i-30" edge="1">
          <mxGeometry width="50" height="50" relative="1" as="geometry">
            <mxPoint x="490" y="250.0000000000001" as="sourcePoint"/>
            <mxPoint x="170" y="170.0000000000001" as="targetPoint"/>
          </mxGeometry>
        </mxCell>
        <mxCell id="BM1TCYL0ZDAD7-d_OZ7i-40" value="" style="endArrow=none;html=1;strokeWidth=3;fillColor=#76608a;strokeColor=#B3B3B3;" parent="BM1TCYL0ZDAD7-d_OZ7i-1" source="BM1TCYL0ZDAD7-d_OZ7i-30" target="BM1TCYL0ZDAD7-d_OZ7i-23" edge="1">
          <mxGeometry width="50" height="50" relative="1" as="geometry">
            <mxPoint x="400.76658894558864" y="228.00260183065996" as="sourcePoint"/>
            <mxPoint x="170" y="170.0000000000001" as="targetPoint"/>
          </mxGeometry>
        </mxCell>
        <mxCell id="BM1TCYL0ZDAD7-d_OZ7i-41" value="" style="endArrow=none;html=1;strokeWidth=3;fillColor=#76608a;strokeColor=#B3B3B3;" parent="BM1TCYL0ZDAD7-d_OZ7i-1" source="BM1TCYL0ZDAD7-d_OZ7i-24" target="BM1TCYL0ZDAD7-d_OZ7i-29" edge="1">
          <mxGeometry width="50" height="50" relative="1" as="geometry">
            <mxPoint x="890" y="320" as="sourcePoint"/>
            <mxPoint x="1170" y="500" as="targetPoint"/>
          </mxGeometry>
        </mxCell>
        <mxCell id="BM1TCYL0ZDAD7-d_OZ7i-42" value="" style="endArrow=none;html=1;strokeWidth=3;fillColor=#76608a;strokeColor=#B3B3B3;" parent="BM1TCYL0ZDAD7-d_OZ7i-1" source="BM1TCYL0ZDAD7-d_OZ7i-22" edge="1">
          <mxGeometry width="50" height="50" relative="1" as="geometry">
            <mxPoint x="440" y="560" as="sourcePoint"/>
            <mxPoint x="210" y="280" as="targetPoint"/>
          </mxGeometry>
        </mxCell>
        <mxCell id="BM1TCYL0ZDAD7-d_OZ7i-22" value="" style="ellipse;whiteSpace=wrap;html=1;aspect=fixed;fillColor=#d5e8d4;strokeColor=#82b366;rotation=5;" parent="BM1TCYL0ZDAD7-d_OZ7i-1" vertex="1">
          <mxGeometry x="230.00000000000003" y="310" width="20.42" height="20.42" as="geometry"/>
        </mxCell>
        <mxCell id="VR79_CDgtdd83Bn23p-1-0" value="" style="endArrow=none;html=1;strokeWidth=3;fillColor=#76608a;strokeColor=#B3B3B3;" parent="BM1TCYL0ZDAD7-d_OZ7i-1" source="BM1TCYL0ZDAD7-d_OZ7i-33" target="BM1TCYL0ZDAD7-d_OZ7i-22" edge="1">
          <mxGeometry width="50" height="50" relative="1" as="geometry">
            <mxPoint x="423.6910582479852" y="542.2413110663831" as="sourcePoint"/>
            <mxPoint x="210" y="280" as="targetPoint"/>
          </mxGeometry>
        </mxCell>
        <mxCell id="VR79_CDgtdd83Bn23p-1-1" value="" style="ellipse;whiteSpace=wrap;html=1;aspect=fixed;fillColor=#f5f5f5;strokeColor=#666666;rotation=5;fontColor=#333333;" parent="BM1TCYL0ZDAD7-d_OZ7i-1" vertex="1">
          <mxGeometry x="199.99999999999994" y="270" width="20" height="20" as="geometry"/>
        </mxCell>
        <mxCell id="YiaSM9y-Fc_Tpj-L1ZVr-0" value="" style="endArrow=none;html=1;strokeWidth=3;fillColor=#76608a;strokeColor=#B3B3B3;" parent="BM1TCYL0ZDAD7-d_OZ7i-1" source="BM1TCYL0ZDAD7-d_OZ7i-33" target="BM1TCYL0ZDAD7-d_OZ7i-34" edge="1">
          <mxGeometry width="50" height="50" relative="1" as="geometry">
            <mxPoint x="627.4252866161178" y="393.3018570732404" as="sourcePoint"/>
            <mxPoint x="822.577571363687" y="217.12130980770098" as="targetPoint"/>
          </mxGeometry>
        </mxCell>
      </root>
    </mxGraphModel>
  </diagram>
</mxfile>
